%TF.GenerationSoftware,KiCad,Pcbnew,10.0.1*%
%TF.CreationDate,2026-07-07T17:58:37+03:00*%
%TF.ProjectId,exeltel,6578656c-7465-46c2-9e6b-696361645f70,1.0*%
%TF.SameCoordinates,PX902f9f0PY4164b90*%
%TF.FileFunction,Copper,L1,Top*%
%TF.FilePolarity,Positive*%
%FSLAX46Y46*%
G04 Gerber Fmt 4.6, Leading zero omitted, Abs format (unit mm)*
G04 Created by KiCad (PCBNEW 10.0.1) date 2026-07-07 17:58:37*
%MOMM*%
%LPD*%
G01*
G04 APERTURE LIST*
G04 Aperture macros list*
%AMRoundRect*
0 Rectangle with rounded corners*
0 $1 Rounding radius*
0 $2 $3 $4 $5 $6 $7 $8 $9 X,Y pos of 4 corners*
0 Add a 4 corners polygon primitive as box body*
4,1,4,$2,$3,$4,$5,$6,$7,$8,$9,$2,$3,0*
0 Add four circle primitives for the rounded corners*
1,1,$1+$1,$2,$3*
1,1,$1+$1,$4,$5*
1,1,$1+$1,$6,$7*
1,1,$1+$1,$8,$9*
0 Add four rect primitives between the rounded corners*
20,1,$1+$1,$2,$3,$4,$5,0*
20,1,$1+$1,$4,$5,$6,$7,0*
20,1,$1+$1,$6,$7,$8,$9,0*
20,1,$1+$1,$8,$9,$2,$3,0*%
G04 Aperture macros list end*
%TA.AperFunction,ComponentPad*%
%ADD10RoundRect,0.250000X0.550000X-0.950000X0.550000X0.950000X-0.550000X0.950000X-0.550000X-0.950000X0*%
%TD*%
%TA.AperFunction,ComponentPad*%
%ADD11O,1.600000X2.400000*%
%TD*%
%TA.AperFunction,ConnectorPad*%
%ADD12R,1.780000X7.620000*%
%TD*%
%TA.AperFunction,ComponentPad*%
%ADD13C,2.000000*%
%TD*%
%TA.AperFunction,ComponentPad*%
%ADD14C,1.600000*%
%TD*%
%TA.AperFunction,Conductor*%
%ADD15C,0.480000*%
%TD*%
G04 APERTURE END LIST*
D10*
%TO.P,U1,1,A15_1*%
%TO.N,+5V*%
X2410000Y-68250000D03*
D11*
%TO.P,U1,2,A12_2*%
%TO.N,/A12*%
X4950000Y-68250000D03*
%TO.P,U1,3,A7_3*%
%TO.N,/A7*%
X7490000Y-68250000D03*
%TO.P,U1,4,A6_4*%
%TO.N,/A6*%
X10030000Y-68250000D03*
%TO.P,U1,5,A5_5*%
%TO.N,/A5*%
X12570000Y-68250000D03*
%TO.P,U1,6,A4_6*%
%TO.N,/A4*%
X15110000Y-68250000D03*
%TO.P,U1,7,A3_7*%
%TO.N,/A3*%
X17650000Y-68250000D03*
%TO.P,U1,8,A2_8*%
%TO.N,/A2*%
X20190000Y-68250000D03*
%TO.P,U1,9,A1_9*%
%TO.N,/A1*%
X22730000Y-68250000D03*
%TO.P,U1,10,A0_10*%
%TO.N,/A0*%
X25270000Y-68250000D03*
%TO.P,U1,11,D0_11*%
%TO.N,D0*%
X27810000Y-68250000D03*
%TO.P,U1,12,D1_12*%
%TO.N,D1*%
X30350000Y-68250000D03*
%TO.P,U1,13,D2_13*%
%TO.N,D2*%
X32890000Y-68250000D03*
%TO.P,U1,14,GND_14*%
%TO.N,GND*%
X35430000Y-68250000D03*
%TO.P,U1,15,D3_15*%
%TO.N,D3*%
X35430000Y-53010000D03*
%TO.P,U1,16,D4_16*%
%TO.N,D4*%
X32890000Y-53010000D03*
%TO.P,U1,17,D5_17*%
%TO.N,D5*%
X30350000Y-53010000D03*
%TO.P,U1,18,D6_18*%
%TO.N,D6*%
X27810000Y-53010000D03*
%TO.P,U1,19,D7_19*%
%TO.N,D7*%
X25270000Y-53010000D03*
%TO.P,U1,20,CE_20*%
%TO.N,Net-(U1-CE)*%
X22730000Y-53010000D03*
%TO.P,U1,21,A10_21*%
%TO.N,/A10*%
X20190000Y-53010000D03*
%TO.P,U1,22,OE_22*%
%TO.N,Net-(U1-OE)*%
X17650000Y-53010000D03*
%TO.P,U1,23,A11_23*%
%TO.N,/A11*%
X15110000Y-53010000D03*
%TO.P,U1,24,A9_24*%
%TO.N,/A9*%
X12570000Y-53010000D03*
%TO.P,U1,25,A8_25*%
%TO.N,/A8*%
X10030000Y-53010000D03*
%TO.P,U1,26,A13_26*%
%TO.N,/A13*%
X7490000Y-53010000D03*
%TO.P,U1,27,A14_27*%
%TO.N,/A14*%
X4950000Y-53010000D03*
%TO.P,U1,28,VCC_28*%
%TO.N,+5V*%
X2410000Y-53010000D03*
%TD*%
D12*
%TO.P,J1,AD1,AD1_AD1*%
%TO.N,/A1*%
X24990000Y-4120000D03*
%TO.P,J1,AD3,AD3_AD3*%
%TO.N,/A3*%
X22450000Y-4120000D03*
%TO.P,J1,AD5,AD5_AD5*%
%TO.N,/A5*%
X14830000Y-4120000D03*
%TO.P,J1,AD7,AD7_AD7*%
%TO.N,/A7*%
X12290000Y-4120000D03*
%TO.P,J1,AD9,AD9_AD9*%
%TO.N,/A9*%
X9750000Y-4120000D03*
%TO.P,J1,AD11,AD11_AD11*%
%TO.N,/A11*%
X7210000Y-4120000D03*
%TO.P,J1,AD13,AD13_AD13*%
%TO.N,/A13*%
X4670000Y-4120000D03*
%TO.P,J1,DB1,D1_DB1*%
%TO.N,D1*%
X35150000Y-4120000D03*
%TO.P,J1,DB3,D3_DB3*%
%TO.N,D3*%
X32610000Y-4120000D03*
%TO.P,J1,DB5,D5_DB5*%
%TO.N,D5*%
X30070000Y-4120000D03*
%TO.P,J1,DB7,D7_DB7*%
%TO.N,D7*%
X27530000Y-4120000D03*
%TO.P,J1,GND,GND_GND*%
%TO.N,GND*%
X17370000Y-4120000D03*
%TO.P,J1,NROMCS,NROMCS_NROMCS*%
%TO.N,Net-(U1-CE)*%
X2130000Y-4120000D03*
%TO.P,J1,SPARIN7,SPARIN7_SPARIN7*%
%TO.N,unconnected-(J1-PadSPARIN7)*%
X19910000Y-4120000D03*
%TD*%
D13*
%TO.P,C1,1*%
%TO.N,+5V*%
X11010000Y-32280000D03*
%TO.P,C1,2*%
%TO.N,GND*%
X18510000Y-32280000D03*
%TD*%
D14*
%TO.P,R1,1*%
%TO.N,+5V*%
X5100000Y-35460000D03*
%TO.P,R1,2*%
%TO.N,/A14*%
X5100000Y-45620000D03*
%TD*%
%TO.N,+5V*%
D15*
X7830000Y-35460000D02*
X11010000Y-32280000D01*
X2410000Y-53010000D02*
X2410000Y-38150000D01*
X2410000Y-38150000D02*
X5100000Y-35460000D01*
X5100000Y-35460000D02*
X7830000Y-35460000D01*
%TO.N,/A7*%
X12420000Y-11590000D02*
X16040000Y-15210000D01*
X16040000Y-15210000D02*
X16040000Y-34855808D01*
X16400000Y-35215807D02*
X16400000Y-56890000D01*
X16040000Y-34855808D02*
X16400000Y-35215807D01*
X12380000Y-11490000D02*
X12420000Y-11530000D01*
X12380000Y-5280000D02*
X12380000Y-11490000D01*
X7490000Y-65800000D02*
X7490000Y-68250000D01*
X12420000Y-11530000D02*
X12420000Y-11590000D01*
X16400000Y-56890000D02*
X7490000Y-65800000D01*
%TO.N,/A5*%
X16730000Y-14750000D02*
X16730000Y-34570000D01*
X16730000Y-34570000D02*
X18900000Y-36740000D01*
X18900000Y-36740000D02*
X18900000Y-57010000D01*
X14920000Y-5280000D02*
X14920000Y-12940000D01*
X12570000Y-63340000D02*
X12570000Y-68250000D01*
X14920000Y-12940000D02*
X16730000Y-14750000D01*
X18900000Y-57010000D02*
X12570000Y-63340000D01*
%TO.N,/A3*%
X22540000Y-13980000D02*
X22540000Y-5280000D01*
X21480000Y-59270000D02*
X21480000Y-15040000D01*
X17650000Y-63100000D02*
X21480000Y-59270000D01*
X21480000Y-15040000D02*
X22540000Y-13980000D01*
X17650000Y-68250000D02*
X17650000Y-63100000D01*
%TO.N,/A1*%
X22730000Y-63380000D02*
X22730000Y-68250000D01*
X25080000Y-14340000D02*
X24020000Y-15400000D01*
X25080000Y-5280000D02*
X25080000Y-14340000D01*
X24020000Y-62090000D02*
X22730000Y-63380000D01*
X24020000Y-15400000D02*
X24020000Y-62090000D01*
%TO.N,D1*%
X30350000Y-63540000D02*
X30350000Y-68250000D01*
X36720000Y-57170000D02*
X30350000Y-63540000D01*
X35240000Y-5280000D02*
X35240000Y-13220000D01*
X35240000Y-13220000D02*
X36720000Y-14700000D01*
X36720000Y-14700000D02*
X36720000Y-57170000D01*
%TO.N,GND*%
X17460000Y-31230000D02*
X18510000Y-32280000D01*
X17460000Y-5280000D02*
X17460000Y-31230000D01*
%TO.N,D3*%
X32700000Y-12010000D02*
X36030000Y-15340000D01*
X35430000Y-48350000D02*
X35430000Y-53010000D01*
X36030000Y-47750000D02*
X35430000Y-48350000D01*
X36030000Y-15340000D02*
X36030000Y-47750000D01*
X32700000Y-5280000D02*
X32700000Y-12010000D01*
%TO.N,D5*%
X35340000Y-16140000D02*
X30160000Y-10960000D01*
X30350000Y-49150000D02*
X35340000Y-44160000D01*
X35340000Y-44160000D02*
X35340000Y-16140000D01*
X30350000Y-53010000D02*
X30350000Y-49150000D01*
X30160000Y-10960000D02*
X30160000Y-5280000D01*
%TO.N,D7*%
X25270000Y-15510000D02*
X27620000Y-13160000D01*
X27620000Y-13160000D02*
X27620000Y-5280000D01*
X25270000Y-53010000D02*
X25270000Y-15510000D01*
%TO.N,Net-(U1-CE)*%
X6240000Y-70670000D02*
X6240000Y-47114192D01*
X7170000Y-71600000D02*
X6240000Y-70670000D01*
X21440000Y-61860000D02*
X21440000Y-70740000D01*
X13250000Y-40104192D02*
X13250000Y-21400000D01*
X6240000Y-47114192D02*
X13250000Y-40104192D01*
X2220000Y-10370000D02*
X2220000Y-5280000D01*
X13250000Y-21400000D02*
X2220000Y-10370000D01*
X21440000Y-70740000D02*
X20580000Y-71600000D01*
X22730000Y-60570000D02*
X21440000Y-61860000D01*
X20580000Y-71600000D02*
X7170000Y-71600000D01*
X22730000Y-53010000D02*
X22730000Y-60570000D01*
%TO.N,/A11*%
X14630000Y-18890000D02*
X7300000Y-11560000D01*
X11320000Y-55155000D02*
X11320000Y-43985808D01*
X7300000Y-11560000D02*
X7300000Y-5280000D01*
X13127500Y-56962500D02*
X11320000Y-55155000D01*
X14630000Y-40675808D02*
X14630000Y-18890000D01*
X15110000Y-54980000D02*
X13127500Y-56962500D01*
X11320000Y-43985808D02*
X14630000Y-40675808D01*
X15110000Y-53650000D02*
X15110000Y-54980000D01*
%TO.N,/A9*%
X15320000Y-16890000D02*
X9840000Y-11410000D01*
X15320000Y-40961615D02*
X15320000Y-16890000D01*
X12570000Y-53010000D02*
X12570000Y-43711616D01*
X12570000Y-43711616D02*
X15320000Y-40961615D01*
X9840000Y-11410000D02*
X9840000Y-5280000D01*
%TO.N,/A13*%
X4780000Y-10350000D02*
X13940000Y-19510000D01*
X13940000Y-19510000D02*
X13940000Y-40390000D01*
X7490000Y-46840000D02*
X7490000Y-53010000D01*
X4760000Y-8200000D02*
X4780000Y-8220000D01*
X13940000Y-40390000D02*
X7490000Y-46840000D01*
X4780000Y-8220000D02*
X4780000Y-10350000D01*
X4760000Y-5280000D02*
X4760000Y-8200000D01*
%TD*%
M02*
