M48
; DRILL file KiCad 10.0.1 date 2026-07-07T17:58:40
; FORMAT={-:-/ absolute / metric / decimal}
; #@! TF.CreationDate,2026-07-07T17:58:40+03:00
; #@! TF.GenerationSoftware,Kicad,Pcbnew,10.0.1
; #@! TF.FileFunction,Plated,1,2,PTH
FMAT,2
METRIC
; #@! TA.AperFunction,Plated,PTH,ComponentDrill
T1C0.800
; #@! TA.AperFunction,Plated,PTH,ComponentDrill
T2C1.000
%
G90
G05
T1
X2.41Y-53.01
X2.41Y-68.25
X4.95Y-53.01
X4.95Y-68.25
X5.1Y-35.46
X5.1Y-45.62
X7.49Y-53.01
X7.49Y-68.25
X10.03Y-53.01
X10.03Y-68.25
X12.57Y-53.01
X12.57Y-68.25
X15.11Y-53.01
X15.11Y-68.25
X17.65Y-53.01
X17.65Y-68.25
X20.19Y-53.01
X20.19Y-68.25
X22.73Y-53.01
X22.73Y-68.25
X25.27Y-53.01
X25.27Y-68.25
X27.81Y-53.01
X27.81Y-68.25
X30.35Y-53.01
X30.35Y-68.25
X32.89Y-53.01
X32.89Y-68.25
X35.43Y-53.01
X35.43Y-68.25
T2
X11.01Y-32.28
X18.51Y-32.28
M30
